<svg width="55" height="55" viewBox="0 0 55 55" fill="none" xmlns="http://www.w3.org/2000/svg">
<g clip-path="url(#clip0_1_385)">
<path d="M50.6593 28.1752C50.4421 27.7306 50.4421 27.2208 50.6593 26.7764L52.6733 22.6563C53.7947 20.3622 52.9062 17.628 50.6507 16.4312L46.5996 14.2818C46.1626 14.05 45.8629 13.6374 45.7774 13.1502L44.9851 8.63311C44.544 6.11812 42.2175 4.4281 39.6898 4.78574L35.1491 5.42804C34.659 5.49723 34.1743 5.33966 33.8188 4.99573L30.5228 1.80721C28.6876 0.0317628 25.8125 0.0316574 23.9774 1.80721L20.6813 4.99604C20.3256 5.34008 19.841 5.49733 19.351 5.42836L14.8103 4.78606C12.2817 4.4282 9.95611 6.11843 9.51494 8.63343L8.72266 13.1503C8.63713 13.6376 8.33749 14.0501 7.90054 14.282L3.84951 16.4314C1.59397 17.6281 0.705502 20.3625 1.82684 22.6566L3.84075 26.7766C4.05802 27.2211 4.05802 27.731 3.84075 28.1754L1.82673 32.2954C0.705397 34.5895 1.59386 37.3237 3.8494 38.5205L7.90043 40.6699C8.33749 40.9017 8.63713 41.3143 8.72266 41.8015L9.51494 46.3186C9.91656 48.6081 11.8797 50.2137 14.136 50.2135C14.3582 50.2135 14.5837 50.1979 14.8104 50.1658L19.3511 49.5235C19.8408 49.454 20.3257 49.6119 20.6814 49.9558L23.9774 53.1444C24.8951 54.0322 26.0724 54.476 27.25 54.4759C28.4274 54.4758 29.6054 54.032 30.5227 53.1444L33.8188 49.9558C34.1744 49.6119 34.6592 49.4548 35.1491 49.5235L39.6898 50.1658C42.2187 50.5236 44.544 48.8334 44.9851 46.3185L45.7775 41.8016C45.8631 41.3143 46.1627 40.9018 46.5996 40.6699L50.6507 38.5205C52.9062 37.3238 53.7947 34.5893 52.6733 32.2953L50.6593 28.1752ZM21.021 13.4606C24.1694 13.4606 26.7309 16.0221 26.7309 19.1705C26.7309 22.319 24.1694 24.8805 21.021 24.8805C17.8725 24.8805 15.311 22.319 15.311 19.1705C15.311 16.0221 17.8725 13.4606 21.021 13.4606ZM18.0738 38.8542C17.7697 39.1582 17.3712 39.3103 16.9727 39.3103C16.5742 39.3103 16.1756 39.1583 15.8716 38.8542C15.2635 38.246 15.2635 37.26 15.8716 36.6519L36.4262 16.0973C37.0342 15.4892 38.0203 15.4892 38.6285 16.0973C39.2366 16.7054 39.2366 17.6915 38.6285 18.2996L18.0738 38.8542ZM33.4789 41.4911C30.3304 41.4911 27.7689 38.9296 27.7689 35.7811C27.7689 32.6327 30.3304 30.0712 33.4789 30.0712C36.6273 30.0712 39.1888 32.6327 39.1888 35.7811C39.1888 38.9296 36.6273 41.4911 33.4789 41.4911Z" fill="#34E834"/>
<path d="M33.4797 33.186C32.0486 33.186 30.8843 34.3503 30.8843 35.7814C30.8843 37.2125 32.0485 38.3768 33.4797 38.3768C34.9108 38.3768 36.0751 37.2125 36.0751 35.7814C36.0751 34.3503 34.9108 33.186 33.4797 33.186Z" fill="#051F0E"/>
<path d="M21.021 16.5751C19.5899 16.5751 18.4257 17.7393 18.4257 19.1704C18.4257 20.6015 19.5899 21.7659 21.021 21.7659C22.4521 21.7659 23.6165 20.6016 23.6165 19.1704C23.6164 17.7394 22.4521 16.5751 21.021 16.5751Z" fill="#051F0E"/>
</g>
<defs>
<clipPath id="clip0_1_385">
<rect width="54" height="54" fill="white" transform="translate(0.25 0.47583)"/>
</clipPath>
</defs>
</svg>
