<svg width="200" height="56" viewBox="0 0 200 56" fill="none" xmlns="http://www.w3.org/2000/svg">
<g clip-path="url(#clip0_32_97)">
<path d="M188.811 0H11.1888C5.0094 0 0 5.01441 0 11.2V44.8C0 50.9856 5.0094 56 11.1888 56H188.811C194.991 56 200 50.9856 200 44.8V11.2C200 5.01441 194.991 0 188.811 0Z" fill="#E0E3EB"/>
<path fill-rule="evenodd" clip-rule="evenodd" d="M32.1678 40.6004H22.3776V25.2004H12.5874V15.4004H32.1678V40.6004ZM62.2378 15.4004L51.7482 40.6004H40.5594L51.0489 15.4004H62.2378ZM40.5594 26.6004C43.6503 26.6004 46.1538 24.0944 46.1538 21.0004C46.1538 17.9064 43.6503 15.4004 40.5594 15.4004C37.4685 15.4004 34.965 17.9064 34.965 21.0004C34.965 24.0944 37.4685 26.6004 40.5594 26.6004Z" fill="#131722"/>
<mask id="mask0_32_97" style="mask-type:luminance" maskUnits="userSpaceOnUse" x="65" y="5" width="126" height="46">
<path d="M190.21 5.59961H65.7344V50.3996H190.21V5.59961Z" fill="white"/>
</mask>
<g mask="url(#mask0_32_97)">
<path d="M76.1955 41.9298H78.8809V31.4158H82.3913V28.8818H72.741V31.4158H76.2095V41.9298H76.1955Z" fill="#131722"/>
<path d="M82.3908 41.9301H84.9083V37.5341C84.9083 36.0081 85.6915 35.0841 86.8943 35.0841C87.3139 35.0841 87.6496 35.1541 88.0272 35.2801V32.7321C87.7195 32.6341 87.4538 32.6201 87.188 32.6201C86.167 32.6201 85.23 33.3061 84.9083 34.2021V32.7321H82.3908V41.9161V41.9301Z" fill="#131722"/>
<path d="M92.8525 42.1255C94.1252 42.1255 95.0763 41.4815 95.4959 40.8935V41.9155H98.0133V32.7315H95.4959V33.7535C95.0763 33.1655 94.1252 32.5215 92.8525 32.5215C90.405 32.5215 88.5448 34.7195 88.5448 37.3095C88.5448 39.8995 90.4189 42.0975 92.8525 42.0975V42.1255ZM93.384 39.8295C91.9854 39.8295 91.0763 38.7795 91.0763 37.3375C91.0763 35.8955 91.9994 34.8455 93.384 34.8455C94.7686 34.8455 95.6917 35.8955 95.6917 37.3375C95.6917 38.7795 94.7686 39.8295 93.384 39.8295Z" fill="#131722"/>
<path d="M103.985 42.1256C105.258 42.1256 106.209 41.4816 106.629 40.8936V41.9156H109.146V28.1396H106.629V33.7536C106.209 33.1656 105.258 32.5216 103.985 32.5216C101.538 32.5216 99.6776 34.7196 99.6776 37.3096C99.6776 39.8996 101.552 42.0976 103.985 42.0976V42.1256ZM104.517 39.8296C103.118 39.8296 102.209 38.7796 102.209 37.3376C102.209 35.8956 103.132 34.8456 104.517 34.8456C105.901 34.8456 106.824 35.8956 106.824 37.3376C106.824 38.7796 105.901 39.8296 104.517 39.8296Z" fill="#131722"/>
<path d="M112.657 31.234C113.552 31.234 114.265 30.52 114.265 29.638C114.265 28.756 113.552 28.042 112.657 28.042C111.762 28.042 111.062 28.756 111.062 29.638C111.062 30.52 111.79 31.234 112.657 31.234ZM111.412 41.93H113.929V32.746H111.412V41.93Z" fill="#131722"/>
<path d="M116.153 41.9298H118.671V37.4498C118.671 35.6858 119.538 34.8458 120.713 34.8458C121.762 34.8458 122.321 35.6578 122.321 36.9738V41.9298H124.839V36.5538C124.839 34.1598 123.524 32.5498 121.3 32.5498C120.111 32.5498 119.174 33.0678 118.671 33.7958V32.7458H116.153V41.9298Z" fill="#131722"/>
<path d="M131.23 39.5355C129.957 39.5355 128.894 38.5835 128.894 37.1835C128.894 35.7835 129.957 34.8315 131.23 34.8315C132.503 34.8315 133.565 35.7695 133.565 37.1835C133.565 38.5975 132.503 39.5355 131.23 39.5355ZM130.936 45.9475C133.747 45.9475 135.873 44.5195 135.873 41.2015V32.7315H133.356V33.7535C132.866 33.0395 131.873 32.5215 130.698 32.5215C128.293 32.5215 126.363 34.5795 126.363 37.1695C126.363 39.7595 128.293 41.8035 130.698 41.8035C131.873 41.8035 132.866 41.2715 133.356 40.5855V41.2155C133.356 42.6855 132.377 43.7355 130.894 43.7355C129.873 43.7355 128.838 43.3855 128.027 42.6015L126.656 44.4775C127.705 45.4855 129.342 45.9475 130.936 45.9475Z" fill="#131722"/>
<path d="M141.188 41.9298H143.552L148.95 28.8818H146.013L142.377 37.9398L138.685 28.8818H135.803L141.174 41.9298H141.188Z" fill="#131722"/>
<path d="M151.258 31.234C152.153 31.234 152.866 30.52 152.866 29.638C152.866 28.756 152.153 28.042 151.258 28.042C150.363 28.042 149.664 28.756 149.664 29.638C149.664 30.52 150.391 31.234 151.258 31.234ZM150.013 41.93H152.531V32.746H150.013V41.93Z" fill="#131722"/>
<path d="M159.035 42.1261C160.965 42.1261 162.434 41.3141 163.287 40.0681L161.413 38.6681C160.993 39.3121 160.196 39.8301 159.049 39.8301C157.902 39.8301 156.755 39.1441 156.601 37.9261H163.469C163.524 37.5341 163.511 37.2821 163.511 37.0581C163.511 34.0621 161.399 32.5361 158.993 32.5361C156.196 32.5361 154.168 34.6081 154.168 37.3241C154.168 40.2221 156.294 42.1121 159.035 42.1121V42.1261ZM156.699 36.2041C156.937 35.0841 157.986 34.6081 158.923 34.6081C159.86 34.6081 160.783 35.0981 160.993 36.2041H156.699Z" fill="#131722"/>
<path d="M172.922 41.9301H175.426L178.447 32.7461H175.748L174.027 38.6261L172.153 32.7461H170.223L168.377 38.6261L166.629 32.7461H163.943L166.992 41.9301H169.482L171.188 36.7081L172.908 41.9301H172.922Z" fill="#131722"/>
<path d="M75.4123 22.4H76.8109V15.246H79.2864V13.902H72.9507V15.246H75.4123V22.4ZM80.0696 22.4H81.4682V18.662H82.0976L85.2025 22.4H86.9227L83.7619 18.578C84.9787 18.284 85.692 17.514 85.692 16.31C85.692 14.91 84.699 13.888 83.1185 13.888H80.0556V22.386L80.0696 22.4ZM81.4682 17.444V15.19H82.9647C83.7899 15.19 84.3074 15.582 84.3074 16.31C84.3074 17.038 83.7899 17.43 82.9647 17.43H81.4682V17.444ZM86.3074 22.4H87.7479L88.699 20.174H92.5032L93.4682 22.4H94.9227L91.2164 13.902H89.9997L86.2934 22.4H86.3074ZM89.2444 18.928L90.6151 15.778L91.9717 18.928H89.2444ZM95.5521 22.4H98.1535C100.671 22.4 102.601 20.552 102.601 18.144C102.601 15.736 100.671 13.888 98.1535 13.888H95.5521V22.386V22.4ZM96.9507 21.098V15.204H98.1535C99.9717 15.204 101.174 16.492 101.174 18.144C101.174 19.796 99.9717 21.084 98.1535 21.084H96.9507V21.098ZM103.664 22.4H108.769V21.056H105.063V18.76H108.056V17.416H105.063V15.232H108.769V13.888H103.664V22.386V22.4ZM120.475 18.144C120.475 15.694 118.517 13.748 116.084 13.748C113.65 13.748 111.692 15.694 111.692 18.144C111.692 20.594 113.636 22.54 116.084 22.54C118.531 22.54 120.475 20.594 120.475 18.144ZM113.105 18.144C113.105 16.45 114.391 15.106 116.084 15.106C117.776 15.106 119.049 16.464 119.049 18.144C119.049 19.824 117.762 21.182 116.084 21.182C114.405 21.182 113.105 19.824 113.105 18.144ZM128.937 22.4V13.902H127.524V19.992L122.755 13.902H121.538V22.4H122.937V16.282L127.72 22.4H128.937Z" fill="#131722"/>
</g>
</g>
<defs>
<clipPath id="clip0_32_97">
<rect width="200" height="56" fill="white"/>
</clipPath>
</defs>
</svg>
