<svg width="62" height="64" viewBox="0 0 62 64" fill="none" xmlns="http://www.w3.org/2000/svg">
<path d="M23 53.6758L23.719 52.9808L23.4242 52.6758H23V53.6758ZM31 61.9517L30.281 62.6467L31 63.3905L31.719 62.6467L31 61.9517ZM39 53.6758V52.6758H38.5758L38.281 52.9808L39 53.6758ZM1 5.95166H2C2 4.29481 3.34315 2.95166 5 2.95166V1.95166V0.95166C2.23858 0.95166 0 3.19024 0 5.95166H1ZM1 49.6758H2V5.95166H1H0V49.6758H1ZM5 53.6758V52.6758C3.34315 52.6758 2 51.3326 2 49.6758H1H0C0 52.4372 2.23858 54.6758 5 54.6758V53.6758ZM23 53.6758V52.6758H5V53.6758V54.6758H23V53.6758ZM31 61.9517L31.719 61.2566L23.719 52.9808L23 53.6758L22.281 54.3708L30.281 62.6467L31 61.9517ZM39 53.6758L38.281 52.9808L30.281 61.2566L31 61.9517L31.719 62.6467L39.719 54.3708L39 53.6758ZM57 53.6758V52.6758H39V53.6758V54.6758H57V53.6758ZM61 49.6758H60C60 51.3327 58.6569 52.6758 57 52.6758V53.6758V54.6758C59.7614 54.6758 62 52.4372 62 49.6758H61ZM61 5.95166H60V49.6758H61H62V5.95166H61ZM57 1.95166V2.95166C58.6569 2.95166 60 4.29481 60 5.95166H61H62C62 3.19024 59.7614 0.95166 57 0.95166V1.95166ZM5 1.95166V2.95166H57V1.95166V0.95166H5V1.95166Z" fill="white"/>
<path d="M53 7.79163C54.1046 7.79163 55 8.68706 55 9.79163V46.1119C54.9998 47.2164 54.1045 48.1119 53 48.1119H9C7.89553 48.1119 7.00017 47.2164 7 46.1119V9.79163C7 8.68706 7.89543 7.79163 9 7.79163H53ZM16.5244 32.8776C19.0447 35.2806 23.4833 38.1589 28.708 39.0055C34.0298 39.8676 40.078 38.5972 45.5303 32.8209L43.3486 30.7623C38.6151 35.777 33.581 36.7551 29.1885 36.0436C24.6992 35.3162 20.7901 32.799 18.5947 30.7057L16.5244 32.8776ZM20.4404 18.8815C18.8498 18.8815 17.5596 20.2155 17.5596 21.861C17.5598 23.5062 18.85 24.8395 20.4404 24.8395C22.0307 24.8392 23.3201 23.506 23.3203 21.861C23.3203 20.2157 22.0308 18.8817 20.4404 18.8815ZM42.5195 18.8815C40.9292 18.8817 39.6396 20.2157 39.6396 21.861C39.6399 23.506 40.9293 24.8392 42.5195 24.8395C44.11 24.8395 45.4002 23.5062 45.4004 21.861C45.4004 20.2155 44.1101 18.8815 42.5195 18.8815Z" fill="#34E834"/>
</svg>
