<svg width="52" height="61" viewBox="0 0 52 61" fill="none" xmlns="http://www.w3.org/2000/svg">
<path d="M46.916 0.95166C47.4683 0.95166 47.916 1.39938 47.916 1.95166V8.17432H50.8057C51.3578 8.17449 51.8057 8.62214 51.8057 9.17432V33.2847C51.8057 33.8368 51.3578 34.2845 50.8057 34.2847H47.916V39.9517C47.916 40.5039 47.4683 40.9517 46.916 40.9517H45.583C45.0307 40.9516 44.583 40.5039 44.583 39.9517V34.2847H41.6943C41.1421 34.2847 40.6943 33.837 40.6943 33.2847V9.17432C40.6943 8.62203 41.1421 8.17432 41.6943 8.17432H44.583V1.95166C44.583 1.39939 45.0307 0.951683 45.583 0.95166H46.916Z" fill="#34E834"/>
<path d="M26.9172 20.9517C27.4693 20.9519 27.9172 21.3995 27.9172 21.9517V28.1743H30.8059C31.3581 28.1744 31.8059 28.6221 31.8059 29.1743V53.2847C31.8059 53.8369 31.3581 54.2846 30.8059 54.2847H27.9172V59.9517C27.9172 60.5038 27.4693 60.9515 26.9172 60.9517H25.5833C25.0311 60.9515 24.5833 60.5038 24.5833 59.9517V54.2847H21.6946C21.1423 54.2846 20.6946 53.8369 20.6946 53.2847V29.1743C20.6946 28.6221 21.1423 28.1744 21.6946 28.1743H24.5833V21.9517C24.5833 21.3995 25.0311 20.9518 25.5833 20.9517H26.9172Z" fill="#34E834"/>
<path d="M6.91614 8.17383C7.46842 8.17383 7.91613 8.62155 7.91614 9.17383V15.3965H10.8058C11.358 15.3966 11.8058 15.8443 11.8058 16.3965V40.5068C11.8058 41.059 11.358 41.5067 10.8058 41.5068H7.91614V47.1738C7.91614 47.7261 7.46842 48.1738 6.91614 48.1738H5.58313C5.03092 48.1737 4.58313 47.7261 4.58313 47.1738V41.5068H1.69446C1.14217 41.5068 0.694458 41.0591 0.694458 40.5068V16.3965C0.694458 15.8442 1.14217 15.3965 1.69446 15.3965H4.58313V9.17383C4.58314 8.6216 5.03092 8.17391 5.58313 8.17383H6.91614Z" fill="#34E834"/>
</svg>
