<svg width="61" height="61" viewBox="0 0 61 61" fill="none" xmlns="http://www.w3.org/2000/svg">
<g clip-path="url(#clip0_1_412)">
<path d="M10.2853 18.8826C9.44441 18.397 8.36959 18.6854 7.88436 19.5258C7.39867 20.3667 7.68706 21.4415 8.52751 21.9268C9.36797 22.4125 10.4433 22.1241 10.9285 21.2836C11.4142 20.4427 11.1258 19.3679 10.2853 18.8826Z" fill="white"/>
<path d="M55.1094 15.1318H53.3516V13.374C53.3516 12.4026 52.5656 11.6162 51.5937 11.6162C50.6224 11.6162 49.8359 12.4026 49.8359 13.374V15.1318H48.0781C47.1067 15.1318 46.3203 15.9183 46.3203 16.8896C46.3203 17.8615 47.1067 18.6475 48.0781 18.6475H49.8359V20.4053C49.8359 21.3766 50.6224 22.1631 51.5937 22.1631C52.5656 22.1631 53.3516 21.3766 53.3516 20.4053V18.6475H55.1094C56.0807 18.6475 56.8672 17.8615 56.8672 16.8896C56.8672 15.9183 56.0807 15.1318 55.1094 15.1318Z" fill="white"/>
<path d="M7.64843 9.7412C7.64843 10.713 8.43441 11.499 9.40625 11.499C10.3776 11.499 11.1641 10.713 11.1641 9.7412V7.98339H12.9219C13.8932 7.98339 14.6797 7.19741 14.6797 6.22558C14.6797 5.25421 13.8932 4.46777 12.9219 4.46777H11.1641V2.70996C11.1641 1.73859 10.3776 0.952148 9.40625 0.952148C8.43441 0.952148 7.64843 1.73859 7.64843 2.70996V4.46777H5.89062C4.91925 4.46777 4.13281 5.25421 4.13281 6.22558C4.13281 7.19741 4.91925 7.98339 5.89062 7.98339H7.64843V9.7412Z" fill="white"/>
<path d="M18.7517 4.23798C20.4249 7.58515 21.3541 11.2802 21.588 15.0146H39.4124C39.6459 11.2807 40.5751 7.58515 42.2483 4.23798L42.6191 3.49641C42.9573 2.82029 42.8251 2.00318 42.2895 1.4676C41.7557 0.932017 40.9386 0.799723 40.2607 1.13801L34.3624 4.08692L31.7426 1.4676C31.056 0.780955 29.9436 0.780955 29.257 1.4676L26.6376 4.08692L20.7393 1.13755C20.0596 0.799723 19.248 0.930186 18.7105 1.4676C18.175 2.00273 18.0427 2.81983 18.381 3.49641L18.7517 4.23798Z" fill="#34E834"/>
<path d="M41.262 18.6475H19.737L12.8738 26.954C9.50421 31.0345 7.64844 36.3167 7.64844 41.6162C7.64844 53.3624 16.6178 60.9517 30.4995 60.9517C44.3816 60.9517 53.3511 53.3624 53.3511 41.6162C53.3511 36.3167 51.4953 31.1517 48.1239 27.0712L41.262 18.6475ZM30.4808 36.8577C33.3889 36.8577 35.7542 39.223 35.7542 42.1312C35.7542 44.4127 34.2893 46.3412 32.2573 47.0746V48.6474C32.2573 49.6188 31.4713 50.4052 30.4995 50.4052C29.5281 50.4052 28.7422 49.6188 28.7422 48.6474V47.0865C26.6905 46.3637 25.2073 44.4264 25.2073 42.1312C25.2073 41.1593 25.9938 40.3734 26.9651 40.3734C27.937 40.3734 28.7229 41.1593 28.7229 42.1312C28.7229 43.1012 29.5112 43.889 30.4808 43.889C31.4508 43.889 32.2386 43.1012 32.2386 42.1312C32.2386 41.1612 31.4508 40.3734 30.4808 40.3734C27.573 40.3734 25.2073 38.0076 25.2073 35.0999C25.2073 32.8042 26.6905 30.8675 28.7422 30.1446V27.5537C28.7422 26.5823 29.5281 25.7959 30.4995 25.7959C31.4713 25.7959 32.2573 26.5823 32.2573 27.5537V30.1565C34.2893 30.8899 35.7542 32.8184 35.7542 35.0999C35.7542 36.0718 34.9682 36.8577 33.9964 36.8577C33.025 36.8577 32.2386 36.0718 32.2386 35.0999C32.2386 34.1304 31.4508 33.3421 30.4808 33.3421C29.5112 33.3421 28.7229 34.1304 28.7229 35.0999C28.7229 36.0699 29.5107 36.8577 30.4808 36.8577Z" fill="#34E834"/>
</g>
<defs>
<clipPath id="clip0_1_412">
<rect width="60" height="60" fill="white" transform="translate(0.5 0.95166)"/>
</clipPath>
</defs>
</svg>
